<svg xmlns="http://www.w3.org/2000/svg"><symbol id="instagram" viewBox="0 0 24 24"><path d="m7.444,1.077c-1.17.055-1.97.242-2.668.517-.723.282-1.336.66-1.946,1.272-.61.612-.985,1.225-1.265,1.95-.271.7-.454,1.5-.506,2.671-.052,1.171-.063,1.547-.057,4.535s.019,3.362.076,4.535c.056,1.17.242,1.969.517,2.668.282.723.66,1.336,1.272,1.946.612.61,1.225.985,1.951,1.265.7.27,1.5.455,2.671.506,1.171.051,1.548.063,4.534.057,2.986-.006,3.362-.019,4.536-.075s1.968-.243,2.667-.516c.723-.283,1.336-.66,1.946-1.272s.985-1.226,1.265-1.951c.271-.7.455-1.5.506-2.67.051-1.174.063-1.549.058-4.536s-.019-3.361-.075-4.534-.242-1.97-.516-2.669c-.283-.723-.66-1.335-1.272-1.946s-1.226-.986-1.951-1.265c-.7-.271-1.5-.455-2.671-.506s-1.548-.064-4.535-.058-3.361.018-4.535.076m.128,19.885c-1.073-.047-1.655-.225-2.043-.374-.514-.198-.88-.437-1.267-.82s-.624-.75-.825-1.263c-.151-.388-.332-.97-.382-2.042-.055-1.159-.066-1.507-.072-4.444s.005-3.284.056-4.444c.046-1.072.225-1.655.374-2.042.198-.515.436-.88.82-1.267s.75-.625,1.263-.825c.388-.151.969-.331,2.041-.382,1.16-.055,1.508-.066,4.444-.072,2.936-.006,3.285.005,4.445.056,1.072.047,1.655.224,2.042.374.514.198.88.436,1.267.82s.625.75.825,1.264c.152.387.332.968.382,2.041.055,1.16.068,1.508.073,4.444.005,2.936-.005,3.285-.056,4.444-.047,1.073-.225,1.655-.374,2.044-.198.514-.437.88-.821,1.266s-.75.624-1.263.825c-.387.151-.97.332-2.041.383-1.16.055-1.508.066-4.445.072s-3.284-.006-4.444-.056m8.967-14.841c.001.729.593,1.319,1.322,1.318s1.319-.593,1.318-1.322c-.001-.729-.593-1.319-1.322-1.318,0,0,0,0,0,0-.729.001-1.319.593-1.317,1.322m-10.188,5.89c.006,3.12,2.54,5.643,5.659,5.637s5.644-2.539,5.638-5.659-2.54-5.643-5.66-5.637-5.643,2.54-5.637,5.659m1.981-.004c-.004-2.025,1.634-3.67,3.66-3.674,2.025-.004,3.67,1.634,3.674,3.659.004,2.025-1.634,3.67-3.66,3.674-2.025.004-3.67-1.634-3.674-3.659h0" /></symbol></svg>